<!DOCTYPE svg PUBLIC "-//W3C//DTD SVG 1.1//EN" "http://www.w3.org/Graphics/SVG/1.1/DTD/svg11.dtd">
<!-- Uploaded to: SVG Repo, www.svgrepo.com, Transformed by: SVG Repo Mixer Tools -->
<svg xmlns="http://www.w3.org/2000/svg" xmlns:xlink="http://www.w3.org/1999/xlink" version="1.1" id="Layer_1" viewBox="0 0 252.667 252.667" xml:space="preserve" width="64px" height="64px" fill="#000000">
<g id="SVGRepo_bgCarrier" stroke-width="0"/>
<g id="SVGRepo_tracerCarrier" stroke-linecap="round" stroke-linejoin="round"/>
<g id="SVGRepo_iconCarrier"> <g> <circle style="fill:#ff5e29;" cx="126.333" cy="126.333" r="126.333"/> <g> <path style="fill:#F8B242;" d="M215.664,37.002c-49.336-49.336-129.326-49.336-178.662,0l89.331,89.331L215.664,37.002z"/> <path style="fill:#ff5e29;" d="M126.334,0C94.002,0,61.67,12.334,37.002,37.002l89.331,89.331L126.334,0z"/> <path style="fill:#F8B242;" d="M37.002,215.664c49.336,49.336,129.326,49.336,178.662,0l-89.331-89.331L37.002,215.664z"/> <path style="fill:#ff5e29;" d="M37.003,215.664c24.668,24.668,57.331,37.002,89.331,37.002V126.333L37.003,215.664z"/> <path style="fill:#F8B242;" d="M215.664,37.002l-89.331,89.331l89.331,89.331C265.001,166.328,265.001,86.338,215.664,37.002z"/> </g> </g> </g>
</svg>