<?xml version="1.0" encoding="utf-8"?>
<!-- Generator: Adobe Illustrator 25.3.0, SVG Export Plug-In . SVG Version: 6.00 Build 0)  -->
<svg version="1.1" id="Layer_1" xmlns="http://www.w3.org/2000/svg" xmlns:xlink="http://www.w3.org/1999/xlink" x="0px" y="0px"
	 viewBox="0 0 316 184" style="enable-background:new 0 0 316 184;" xml:space="preserve">
<style type="text/css">
	.st0{display:none;}
	.st1{display:inline;}
	.st2{fill:#000D5E;}
	.st3{font-family:'AvenirLTPro-Light';}
	.st4{font-size:41.8118px;}
	.st5{font-size:34.6296px;}
	.st6{font-size:94.7429px;}
	.st7{fill:none;stroke:#B28918;stroke-width:5;stroke-linecap:round;stroke-miterlimit:10;}
	.st8{fill:#B28918;}
	.st9{display:inline;fill:none;stroke:#B28918;stroke-width:6;stroke-linecap:square;stroke-miterlimit:10;}
	.st10{display:inline;fill:#B28918;}
	.st11{fill:url(#SVGID_1_);}
	.st12{fill:url(#SVGID_2_);}
	.st13{fill:url(#SVGID_3_);}
	.st14{fill:url(#SVGID_4_);}
	.st15{fill:url(#SVGID_5_);}
	.st16{fill:url(#SVGID_6_);}
	.st17{fill:url(#SVGID_7_);}
	.st18{fill:url(#SVGID_8_);}
	.st19{fill:url(#SVGID_9_);}
	.st20{fill:url(#SVGID_10_);}
	.st21{fill:url(#SVGID_11_);}
	.st22{fill:url(#SVGID_12_);}
	.st23{fill:url(#SVGID_13_);}
	.st24{fill:url(#SVGID_14_);}
	.st25{fill:url(#SVGID_15_);}
	.st26{fill:#9B9B9E;}
	.st27{fill:none;stroke:#9B9A9A;stroke-width:6;stroke-linecap:square;stroke-miterlimit:10;}
	.st28{fill:none;stroke:url(#SVGID_16_);stroke-width:6;stroke-linecap:square;stroke-miterlimit:10;}
	.st29{fill:none;stroke:url(#SVGID_17_);stroke-width:6;stroke-linecap:square;stroke-miterlimit:10;}
	.st30{fill:url(#SVGID_18_);}
	.st31{fill:url(#SVGID_19_);}
	.st32{fill:url(#SVGID_20_);}
	.st33{fill:url(#SVGID_21_);}
	.st34{fill:url(#SVGID_22_);}
	.st35{fill:none;stroke:url(#SVGID_23_);stroke-width:5;stroke-linecap:round;stroke-miterlimit:10;}
	.st36{fill:url(#SVGID_24_);}
</style>
<g class="st0">
	<text id="Thank_You__for_your" transform="matrix(1 0 0 1 65.0483 58.1611)" class="st1"><tspan x="0" y="0" class="st2 st3 st4">Thank You </tspan><tspan x="39.19" y="31.82" class="st2 st3 st5">for your </tspan><tspan x="90.75" y="63.64" class="st2 st3 st6"> </tspan></text>
	<g class="st1">
		<g>
			<path class="st2" d="M88.18,168.54v-67.08h17.62c15.92,0,23.88,5.87,23.88,17.62c0,10.04-5.72,15.79-17.15,17.24l19.52,32.21
				h-7.11l-18.84-31.83H94.43v31.83H88.18z M94.43,107.15v23.88h13.26c3.09,0,5.75-0.39,7.96-1.18c2.21-0.79,3.84-1.83,4.88-3.13
				c1.04-1.29,1.78-2.56,2.23-3.79c0.44-1.23,0.66-2.51,0.66-3.84c0-1.33-0.22-2.61-0.66-3.84c-0.44-1.23-1.18-2.49-2.23-3.79
				c-1.04-1.29-2.67-2.34-4.88-3.13c-2.21-0.79-4.86-1.18-7.96-1.18H94.43z"/>
			<path class="st2" d="M143.51,168.54v-67.08h20.75c4.74,0,9.05,0.55,12.93,1.66c3.88,1.11,7.06,2.48,9.52,4.12
				c2.46,1.64,4.61,3.62,6.44,5.92c1.83,2.31,3.2,4.49,4.12,6.54c0.91,2.05,1.64,4.23,2.18,6.54c0.54,2.31,0.85,4.07,0.95,5.31
				c0.09,1.23,0.14,2.38,0.14,3.46c0,1.07-0.05,2.23-0.14,3.46c-0.09,1.23-0.41,3-0.95,5.31c-0.54,2.31-1.26,4.49-2.18,6.54
				c-0.92,2.05-2.29,4.23-4.12,6.54c-1.83,2.31-3.98,4.28-6.44,5.92c-2.46,1.64-5.64,3.02-9.52,4.12c-3.88,1.11-8.2,1.66-12.93,1.66
				H143.51z M149.76,107.15v55.71h12.89c9.41,0,17.04-2.34,22.88-7.01c5.84-4.67,8.76-11.62,8.76-20.84
				c0-9.22-2.92-16.17-8.76-20.84c-5.84-4.67-13.47-7.01-22.88-7.01H149.76z"/>
			<path class="st2" d="M214.56,168.54v-67.08h41.02v5.68h-34.77v23.88h32.59v5.68h-32.59v26.15h36.29v5.68H214.56z"/>
			<path class="st2" d="M270.74,168.54v-67.08h17.62c15.92,0,23.88,5.87,23.88,17.62c0,10.04-5.72,15.79-17.15,17.24l19.52,32.21
				h-7.11l-18.84-31.83H277v31.83H270.74z M277,107.15v23.88h13.26c3.09,0,5.75-0.39,7.96-1.18c2.21-0.79,3.84-1.83,4.88-3.13
				c1.04-1.29,1.78-2.56,2.23-3.79c0.44-1.23,0.66-2.51,0.66-3.84c0-1.33-0.22-2.61-0.66-3.84c-0.44-1.23-1.18-2.49-2.23-3.79
				c-1.04-1.29-2.67-2.34-4.88-3.13c-2.21-0.79-4.86-1.18-7.96-1.18H277z"/>
		</g>
		<g>
			<path class="st7" d="M9.68,106.01c17-14.91,43.25-13.19,58.16,3.8s13.19,43.25-3.8,58.16s-43.25,13.19-58.16-3.8"/>
			<g>
				<path class="st8" d="M18.69,137.56c1.68,0.84,3.26,1.78,4.81,2.75l2.29,1.49c0.76,0.5,1.48,1.04,2.22,1.56
					c0.73,0.53,1.48,1.04,2.2,1.58l2.12,1.66l2.12,1.66l2.05,1.73h-5.73c4.89-5.69,10.17-10.99,15.82-15.92
					c1.42-1.22,2.85-2.44,4.35-3.58c1.48-1.16,2.94-2.35,4.51-3.43l2.32-1.65l2.4-1.56c1.62-1.03,3.28-2.01,5.04-2.9l0.24-0.12
					l0.29,0.29l-0.17,0.18c-2.61,2.68-5.19,5.38-7.84,8.03l-7.89,7.97l-7.9,7.97l-7.97,7.89l-0.31,0.31l-0.31-0.31l-7.52-7.6
					c-2.51-2.53-4.97-5.11-7.46-7.66l-0.17-0.18l0.29-0.29L18.69,137.56z"/>
			</g>
		</g>
	</g>
	<path class="st9" d="M109.02,12.94c0,0,0.31-0.89,0.89-0.89c0.47,0,0.94-0.97,0.94-0.97"/>
	<path class="st9" d="M285.03,74.59c0,0,0.31-0.89,0.89-0.89c0.47,0,0.94-0.97,0.94-0.97"/>
	<path class="st9" d="M183.04,10.5c0,0,2.22-2.04,2.66-1.66c0.35,0.31,2.87-1.83,2.87-1.83"/>
	<path class="st9" d="M25.72,77.8c0,0-0.9-0.49-0.76-0.98c0.12-0.4-0.83-1.04-0.83-1.04"/>
	<rect x="204.49" y="71.53" class="st10" width="5.62" height="5.62"/>
	<rect x="30.4" y="25.67" class="st10" width="5.62" height="5.62"/>
	<rect x="300.89" y="131.43" class="st10" width="5.62" height="5.62"/>
	
		<rect x="245.76" y="94.87" transform="matrix(0.6409 0.7676 -0.7676 0.6409 163.3967 -156.129)" class="st10" width="5.62" height="3.41"/>
	
		<rect x="216.74" y="142.6" transform="matrix(0.6409 0.7676 -0.7676 0.6409 189.6188 -116.7147)" class="st10" width="5.62" height="3.41"/>
	
		<rect x="124.09" y="68.66" transform="matrix(0.6409 0.7676 -0.7676 0.6409 99.5847 -72.1399)" class="st10" width="5.62" height="3.41"/>
	
		<rect x="69.37" y="36.57" transform="matrix(0.6409 0.7676 -0.7676 0.6409 54.9733 -41.0044)" class="st10" width="3.89" height="3.36"/>
	
		<rect x="123.15" y="129.5" transform="matrix(0.6409 0.7676 -0.7676 0.6409 145.9487 -49.5739)" class="st10" width="5.62" height="3.41"/>
	<rect x="270" y="28.48" class="st10" width="5.62" height="5.62"/>
	<rect x="173.52" y="87.53" transform="matrix(0.866 0.5 -0.5 0.866 68.3566 -75.8876)" class="st10" width="4.53" height="4.16"/>
	<rect x="70.65" y="71.53" transform="matrix(0.866 0.5 -0.5 0.866 47.0093 -26.7693)" class="st10" width="5.62" height="5.62"/>
</g>
<g>
	<linearGradient id="SVGID_1_" gradientUnits="userSpaceOnUse" x1="69.0154" y1="42.552" x2="90.038" y2="34.6685">
		<stop  offset="0" style="stop-color:#D18159"/>
		<stop  offset="0.984" style="stop-color:#C27861"/>
	</linearGradient>
	<path class="st11" d="M74.34,56.74V29.64H64.22v-2.51h23v2.51H77.09v27.09H74.34z"/>
	<linearGradient id="SVGID_2_" gradientUnits="userSpaceOnUse" x1="86.8839" y1="45.6035" x2="105.9948" y2="38.4369">
		<stop  offset="0" style="stop-color:#D18159"/>
		<stop  offset="0.984" style="stop-color:#C27861"/>
	</linearGradient>
	<path class="st12" d="M91.06,56.74V25.13h2.51v15.68h0.08c0.53-1.11,1.39-2.04,2.57-2.78c1.18-0.74,2.53-1.11,4.03-1.11
		c4.91,0,7.36,2.77,7.36,8.32v11.5h-2.51V45.36c0-4.12-1.62-6.19-4.85-6.19c-1.95,0-3.55,0.68-4.81,2.05
		c-1.25,1.37-1.88,3.32-1.88,5.85v9.66H91.06z"/>
	<linearGradient id="SVGID_3_" gradientUnits="userSpaceOnUse" x1="112.8775" y1="51.2384" x2="130.2756" y2="44.7142">
		<stop  offset="0" style="stop-color:#D18159"/>
		<stop  offset="0.984" style="stop-color:#C27861"/>
	</linearGradient>
	<path class="st13" d="M129.32,43.9v4.73c0,3.51,0.13,6.22,0.38,8.11h-2.34c-0.17-0.95-0.25-1.99-0.25-3.14h-0.08
		c-1.39,2.42-3.65,3.64-6.77,3.64c-1.87,0-3.47-0.48-4.81-1.44c-1.34-0.96-2.01-2.39-2.01-4.29c0-4.32,3.57-6.48,10.7-6.48h2.93
		v-1.17c0-1.59-0.5-2.77-1.48-3.53c-0.99-0.77-2.31-1.15-3.95-1.15c-2.23,0-4.2,0.73-5.9,2.17l-1.46-1.71
		c0.89-0.84,2.01-1.5,3.37-1.99c1.35-0.49,2.68-0.73,3.99-0.73c2.42,0,4.31,0.57,5.67,1.71C128.64,39.78,129.32,41.53,129.32,43.9z
		 M127.06,47.04h-2.76c-2.37,0-4.36,0.34-5.96,1.02c-1.6,0.68-2.4,1.79-2.4,3.32c0,1.12,0.45,1.99,1.34,2.63
		c0.89,0.64,1.91,0.96,3.05,0.96c2.45,0,4.19-0.63,5.21-1.9c1.02-1.27,1.53-2.85,1.53-4.75V47.04z"/>
	<linearGradient id="SVGID_4_" gradientUnits="userSpaceOnUse" x1="133.8395" y1="50.9578" x2="152.9504" y2="43.7912">
		<stop  offset="0" style="stop-color:#D18159"/>
		<stop  offset="0.984" style="stop-color:#C27861"/>
	</linearGradient>
	<path class="st14" d="M136.01,56.74V42.86c0-0.5-0.04-1.46-0.1-2.86c-0.07-1.41-0.1-2.26-0.1-2.57h2.51
		c0.06,2.03,0.11,3.16,0.17,3.39h0.13c0.53-1.11,1.39-2.04,2.57-2.78c1.18-0.74,2.53-1.11,4.03-1.11c4.91,0,7.36,2.77,7.36,8.32
		v11.5h-2.51V45.36c0-4.12-1.62-6.19-4.85-6.19c-1.95,0-3.55,0.68-4.81,2.05c-1.25,1.37-1.88,3.32-1.88,5.85v9.66H136.01z"/>
	<linearGradient id="SVGID_5_" gradientUnits="userSpaceOnUse" x1="155.0994" y1="45.6586" x2="175.2203" y2="38.1133">
		<stop  offset="0" style="stop-color:#D18159"/>
		<stop  offset="0.984" style="stop-color:#C27861"/>
	</linearGradient>
	<path class="st15" d="M159.25,56.74V25.13h2.51v21.07l9.53-8.73h3.68l-9.95,8.82l11.12,10.45h-3.81l-10.58-10.23v10.23H159.25z"/>
	<linearGradient id="SVGID_6_" gradientUnits="userSpaceOnUse" x1="192.1463" y1="42.4282" x2="213.8289" y2="34.2972">
		<stop  offset="0" style="stop-color:#D18159"/>
		<stop  offset="0.984" style="stop-color:#C27861"/>
	</linearGradient>
	<path class="st16" d="M197.51,56.74V43.99l-10.87-16.85h3.3l8.95,14.03l9.15-14.03h3.09l-10.87,16.85v12.75H197.51z"/>
	<linearGradient id="SVGID_7_" gradientUnits="userSpaceOnUse" x1="209.8534" y1="50.6831" x2="229.0715" y2="43.4763">
		<stop  offset="0" style="stop-color:#D18159"/>
		<stop  offset="0.984" style="stop-color:#C27861"/>
	</linearGradient>
	<path class="st17" d="M212.17,54.38c-1.91-1.91-2.86-4.34-2.86-7.3c0-2.95,0.95-5.39,2.86-7.3c1.91-1.91,4.34-2.86,7.3-2.86
		c2.95,0,5.39,0.96,7.3,2.86c1.91,1.91,2.86,4.34,2.86,7.3c0,2.96-0.96,5.39-2.86,7.3c-1.91,1.91-4.34,2.86-7.3,2.86
		C216.51,57.24,214.08,56.29,212.17,54.38z M213.9,41.46c-1.39,1.52-2.09,3.39-2.09,5.62c0,2.23,0.7,4.1,2.09,5.62
		c1.39,1.52,3.25,2.28,5.56,2.28s4.17-0.76,5.56-2.28c1.39-1.52,2.09-3.39,2.09-5.62c0-2.23-0.7-4.1-2.09-5.62
		c-1.39-1.52-3.25-2.28-5.56-2.28S215.3,39.94,213.9,41.46z"/>
	<linearGradient id="SVGID_8_" gradientUnits="userSpaceOnUse" x1="234.6306" y1="50.368" x2="253.7416" y2="43.2014">
		<stop  offset="0" style="stop-color:#D18159"/>
		<stop  offset="0.984" style="stop-color:#C27861"/>
	</linearGradient>
	<path class="st18" d="M251.57,37.42V51.3c0,0.5,0.03,1.46,0.1,2.86c0.07,1.41,0.1,2.26,0.1,2.57h-2.51
		c-0.06-2.03-0.11-3.16-0.17-3.39h-0.13c-0.53,1.12-1.39,2.04-2.57,2.78s-2.53,1.11-4.03,1.11c-4.91,0-7.36-2.77-7.36-8.32v-11.5
		h2.51v11.37c0,4.13,1.62,6.19,4.85,6.19c1.95,0,3.55-0.68,4.81-2.05c1.25-1.37,1.88-3.32,1.88-5.85v-9.66H251.57z"/>
	<linearGradient id="SVGID_9_" gradientUnits="userSpaceOnUse" x1="100.9255" y1="77.8786" x2="115.8173" y2="72.2942">
		<stop  offset="0" style="stop-color:#D18159"/>
		<stop  offset="0.984" style="stop-color:#C27861"/>
	</linearGradient>
	<path class="st19" d="M104.93,88.56V74.43h-3.32v-1.87h3.32v-5.23c0-1.87,0.48-3.23,1.45-4.09c0.97-0.85,2.08-1.28,3.32-1.28
		c0.97,0,1.77,0.14,2.39,0.42l-0.42,1.8c-0.46-0.23-1.09-0.35-1.87-0.35c-1.87,0-2.81,1.42-2.81,4.26v4.47h3.74v1.87h-3.74v14.13
		H104.93z"/>
	<linearGradient id="SVGID_10_" gradientUnits="userSpaceOnUse" x1="113.5596" y1="83.5448" x2="129.4765" y2="77.5759">
		<stop  offset="0" style="stop-color:#D18159"/>
		<stop  offset="0.984" style="stop-color:#C27861"/>
	</linearGradient>
	<path class="st20" d="M115.48,86.6c-1.58-1.58-2.37-3.6-2.37-6.04c0-2.45,0.79-4.46,2.37-6.04c1.58-1.58,3.6-2.37,6.04-2.37
		c2.45,0,4.46,0.79,6.04,2.37c1.58,1.58,2.37,3.6,2.37,6.04c0,2.45-0.79,4.46-2.37,6.04c-1.58,1.58-3.6,2.37-6.04,2.37
		C119.07,88.98,117.06,88.18,115.48,86.6z M116.91,75.9c-1.15,1.26-1.73,2.81-1.73,4.66c0,1.85,0.58,3.4,1.73,4.66
		c1.15,1.26,2.69,1.89,4.61,1.89c1.92,0,3.45-0.63,4.61-1.89c1.15-1.26,1.73-2.81,1.73-4.66c0-1.85-0.58-3.4-1.73-4.66
		c-1.15-1.26-2.69-1.89-4.61-1.89C119.6,74.02,118.07,74.64,116.91,75.9z"/>
	<linearGradient id="SVGID_11_" gradientUnits="userSpaceOnUse" x1="132.0609" y1="81.8596" x2="144.7173" y2="77.1134">
		<stop  offset="0" style="stop-color:#D18159"/>
		<stop  offset="0.984" style="stop-color:#C27861"/>
	</linearGradient>
	<path class="st21" d="M134.57,88.56v-11.5c0-0.42-0.03-1.21-0.09-2.37c-0.06-1.17-0.09-1.88-0.09-2.13h2.08
		c0.05,1.69,0.09,2.62,0.14,2.81c1.2-2.15,2.9-3.22,5.09-3.22c0.35,0,0.75,0.06,1.21,0.17l-0.24,2.04c-0.28-0.09-0.54-0.14-0.8-0.14
		c-1.73,0-3.04,0.52-3.91,1.56c-0.88,1.04-1.32,2.39-1.32,4.05v8.73H134.57z"/>
	<linearGradient id="SVGID_12_" gradientUnits="userSpaceOnUse" x1="149.4364" y1="86.6065" x2="170.1988" y2="78.8206">
		<stop  offset="0" style="stop-color:#D18159"/>
		<stop  offset="0.984" style="stop-color:#C27861"/>
	</linearGradient>
	<path class="st22" d="M167.85,72.56l-8.24,20.95c-0.88,2.24-2.34,3.36-4.4,3.36c-0.58,0-1.26-0.11-2.04-0.31l0.21-1.94
		c0.85,0.25,1.48,0.38,1.87,0.38c0.67,0,1.19-0.24,1.58-0.73c0.39-0.49,0.75-1.13,1.07-1.94l1.46-3.73l-6.5-16.04h2.32l5.25,13.31
		l5.21-13.31H167.85z"/>
	<linearGradient id="SVGID_13_" gradientUnits="userSpaceOnUse" x1="170.6981" y1="83.5448" x2="186.6154" y2="77.5759">
		<stop  offset="0" style="stop-color:#D18159"/>
		<stop  offset="0.984" style="stop-color:#C27861"/>
	</linearGradient>
	<path class="st23" d="M172.61,86.6c-1.58-1.58-2.37-3.6-2.37-6.04c0-2.45,0.79-4.46,2.37-6.04c1.58-1.58,3.6-2.37,6.04-2.37
		c2.45,0,4.46,0.79,6.04,2.37c1.58,1.58,2.37,3.6,2.37,6.04c0,2.45-0.79,4.46-2.37,6.04c-1.58,1.58-3.6,2.37-6.04,2.37
		C176.21,88.98,174.2,88.18,172.61,86.6z M174.05,75.9c-1.16,1.26-1.73,2.81-1.73,4.66c0,1.85,0.58,3.4,1.73,4.66
		c1.15,1.26,2.69,1.89,4.61,1.89c1.92,0,3.45-0.63,4.61-1.89c1.15-1.26,1.73-2.81,1.73-4.66c0-1.85-0.58-3.4-1.73-4.66
		c-1.15-1.26-2.69-1.89-4.61-1.89C176.74,74.02,175.2,74.64,174.05,75.9z"/>
	<linearGradient id="SVGID_14_" gradientUnits="userSpaceOnUse" x1="191.2191" y1="83.2838" x2="207.047" y2="77.3483">
		<stop  offset="0" style="stop-color:#D18159"/>
		<stop  offset="0.984" style="stop-color:#C27861"/>
	</linearGradient>
	<path class="st24" d="M205.25,72.56v11.5c0,0.42,0.03,1.21,0.09,2.37c0.06,1.17,0.09,1.88,0.09,2.13h-2.08
		c-0.05-1.69-0.09-2.62-0.14-2.81h-0.1c-0.44,0.92-1.15,1.69-2.13,2.3c-0.98,0.61-2.1,0.92-3.34,0.92c-4.06,0-6.09-2.3-6.09-6.89
		v-9.52h2.08v9.42c0,3.42,1.34,5.12,4.02,5.12c1.62,0,2.94-0.57,3.98-1.7c1.04-1.13,1.56-2.75,1.56-4.85v-8H205.25z"/>
	<linearGradient id="SVGID_15_" gradientUnits="userSpaceOnUse" x1="208.453" y1="81.8596" x2="221.1093" y2="77.1134">
		<stop  offset="0" style="stop-color:#D18159"/>
		<stop  offset="0.984" style="stop-color:#C27861"/>
	</linearGradient>
	<path class="st25" d="M210.97,88.56v-11.5c0-0.42-0.03-1.21-0.09-2.37c-0.06-1.17-0.09-1.88-0.09-2.13h2.08
		c0.05,1.69,0.09,2.62,0.14,2.81c1.2-2.15,2.9-3.22,5.09-3.22c0.35,0,0.75,0.06,1.21,0.17l-0.24,2.04c-0.28-0.09-0.54-0.14-0.8-0.14
		c-1.73,0-3.04,0.52-3.91,1.56c-0.88,1.04-1.32,2.39-1.32,4.05v8.73H210.97z"/>
</g>
<g>
	<g>
		<path class="st26" d="M85.93,167.98V100.9h17.62c15.92,0,23.88,5.87,23.88,17.62c0,10.04-5.72,15.79-17.15,17.24l19.52,32.21
			h-7.11l-18.84-31.83H92.18v31.83H85.93z M92.18,106.59v23.88h13.26c3.09,0,5.75-0.39,7.96-1.18c2.21-0.79,3.84-1.83,4.88-3.13
			c1.04-1.29,1.78-2.56,2.23-3.79c0.44-1.23,0.66-2.51,0.66-3.84c0-1.33-0.22-2.61-0.66-3.84c-0.44-1.23-1.18-2.49-2.23-3.79
			c-1.04-1.29-2.67-2.34-4.88-3.13c-2.21-0.79-4.86-1.18-7.96-1.18H92.18z"/>
		<path class="st26" d="M141.26,167.98V100.9h20.75c4.74,0,9.05,0.55,12.93,1.66c3.88,1.11,7.06,2.48,9.52,4.12
			c2.46,1.64,4.61,3.62,6.44,5.92c1.83,2.31,3.2,4.49,4.12,6.54c0.91,2.05,1.64,4.23,2.18,6.54c0.54,2.31,0.85,4.07,0.95,5.31
			c0.09,1.23,0.14,2.38,0.14,3.46c0,1.07-0.05,2.23-0.14,3.46c-0.09,1.23-0.41,3-0.95,5.31c-0.54,2.31-1.26,4.49-2.18,6.54
			c-0.92,2.05-2.29,4.23-4.12,6.54c-1.83,2.31-3.98,4.28-6.44,5.92c-2.46,1.64-5.64,3.02-9.52,4.12c-3.88,1.11-8.2,1.66-12.93,1.66
			H141.26z M147.51,106.59v55.71h12.89c9.41,0,17.04-2.34,22.88-7.01c5.84-4.67,8.76-11.62,8.76-20.84c0-9.22-2.92-16.17-8.76-20.84
			c-5.84-4.67-13.47-7.01-22.88-7.01H147.51z"/>
		<path class="st26" d="M212.32,167.98V100.9h41.02v5.68h-34.77v23.88h32.59v5.68h-32.59v26.15h36.29v5.68H212.32z"/>
		<path class="st26" d="M268.5,167.98V100.9h17.62c15.92,0,23.88,5.87,23.88,17.62c0,10.04-5.72,15.79-17.15,17.24l19.52,32.21
			h-7.11l-18.84-31.83h-11.66v31.83H268.5z M274.75,106.59v23.88h13.26c3.09,0,5.75-0.39,7.96-1.18c2.21-0.79,3.84-1.83,4.88-3.13
			c1.04-1.29,1.78-2.56,2.23-3.79c0.44-1.23,0.66-2.51,0.66-3.84c0-1.33-0.22-2.61-0.66-3.84c-0.44-1.23-1.18-2.49-2.23-3.79
			c-1.04-1.29-2.67-2.34-4.88-3.13c-2.21-0.79-4.86-1.18-7.96-1.18H274.75z"/>
	</g>
</g>
<path class="st27" d="M106.78,12.38c0,0,0.31-0.89,0.89-0.89c0.47,0,0.94-0.97,0.94-0.97"/>
<linearGradient id="SVGID_16_" gradientUnits="userSpaceOnUse" x1="278.9556" y1="73.0173" x2="288.6193" y2="73.0173">
	<stop  offset="0" style="stop-color:#E7865B"/>
	<stop  offset="0.4923" style="stop-color:#E99A59"/>
	<stop  offset="1" style="stop-color:#E6805B"/>
</linearGradient>
<path class="st28" d="M282.78,74.03c0,0,0.31-0.89,0.89-0.89c0.47,0,0.94-0.97,0.94-0.97"/>
<linearGradient id="SVGID_17_" gradientUnits="userSpaceOnUse" x1="176.5526" y1="8.1934" x2="190.5436" y2="8.1934">
	<stop  offset="0" style="stop-color:#E7865B"/>
	<stop  offset="0.4923" style="stop-color:#E99A59"/>
	<stop  offset="1" style="stop-color:#E6805B"/>
</linearGradient>
<path class="st29" d="M180.79,9.94c0,0,2.22-2.04,2.66-1.66c0.35,0.31,2.87-1.83,2.87-1.83"/>
<path class="st27" d="M23.48,77.24c0,0-0.9-0.49-0.76-0.98c0.12-0.4-0.83-1.04-0.83-1.04"/>
<rect x="202.24" y="59" transform="matrix(0.866 0.5 -0.5 0.866 58.4439 -94.5315)" class="st26" width="6.76" height="5.58"/>
<rect x="28.16" y="25.11" class="st26" width="5.62" height="5.62"/>
<linearGradient id="SVGID_18_" gradientUnits="userSpaceOnUse" x1="298.6416" y1="133.6762" x2="304.2572" y2="133.6762">
	<stop  offset="0" style="stop-color:#E7865B"/>
	<stop  offset="0.4923" style="stop-color:#E99A59"/>
	<stop  offset="1" style="stop-color:#E6805B"/>
</linearGradient>
<rect x="298.64" y="130.87" class="st30" width="5.62" height="5.62"/>
<linearGradient id="SVGID_19_" gradientUnits="userSpaceOnUse" x1="243.2104" y1="96.0104" x2="249.4251" y2="96.0104">
	<stop  offset="0" style="stop-color:#E7865B"/>
	<stop  offset="0.4923" style="stop-color:#E99A59"/>
	<stop  offset="1" style="stop-color:#E6805B"/>
</linearGradient>
<polygon class="st31" points="246.81,99.26 243.21,94.95 245.83,92.76 249.43,97.07 "/>
<linearGradient id="SVGID_20_" gradientUnits="userSpaceOnUse" x1="214.1964" y1="143.743" x2="220.4112" y2="143.743">
	<stop  offset="0" style="stop-color:#E7865B"/>
	<stop  offset="0.4923" style="stop-color:#E99A59"/>
	<stop  offset="1" style="stop-color:#E6805B"/>
</linearGradient>
<polygon class="st32" points="217.8,146.99 214.2,142.68 216.81,140.5 220.41,144.81 "/>
<rect x="121.84" y="68.1" transform="matrix(0.6409 0.7676 -0.7676 0.6409 98.3481 -70.6156)" class="st26" width="5.62" height="3.41"/>
<rect x="67.12" y="36.01" transform="matrix(0.6409 0.7676 -0.7676 0.6409 53.7368 -39.4801)" class="st8" width="3.89" height="3.36"/>
<linearGradient id="SVGID_21_" gradientUnits="userSpaceOnUse" x1="120.603" y1="130.6399" x2="126.8177" y2="130.6399">
	<stop  offset="0" style="stop-color:#E7865B"/>
	<stop  offset="0.4923" style="stop-color:#E99A59"/>
	<stop  offset="1" style="stop-color:#E6805B"/>
</linearGradient>
<polygon class="st33" points="124.2,133.89 120.6,129.58 123.22,127.39 126.82,131.7 "/>
<rect x="267.76" y="27.92" class="st26" width="5.62" height="5.62"/>
<rect x="171.28" y="86.97" transform="matrix(0.866 0.5 -0.5 0.866 67.7758 -74.8389)" class="st26" width="4.53" height="4.16"/>
<linearGradient id="SVGID_22_" gradientUnits="userSpaceOnUse" x1="67.374" y1="73.7764" x2="75.0451" y2="73.7764">
	<stop  offset="0" style="stop-color:#E7865B"/>
	<stop  offset="0.4923" style="stop-color:#E99A59"/>
	<stop  offset="1" style="stop-color:#E6805B"/>
</linearGradient>
<polygon class="st34" points="72.24,77.61 67.37,74.8 70.18,69.94 75.05,72.75 "/>
<g>
	<linearGradient id="SVGID_23_" gradientUnits="userSpaceOnUse" x1="15.0596" y1="133.4551" x2="78.7115" y2="133.4551">
		<stop  offset="0" style="stop-color:#D18159"/>
		<stop  offset="1" style="stop-color:#C27861"/>
	</linearGradient>
	<path class="st35" d="M20.65,108.26c13.82-12.13,35.18-10.73,47.3,3.09s10.73,35.18-3.09,47.3c-13.82,12.13-35.18,10.73-47.3-3.09"
		/>
	<g>
		<linearGradient id="SVGID_24_" gradientUnits="userSpaceOnUse" x1="24.2966" y1="133.6258" x2="69.4745" y2="133.6258">
			<stop  offset="0" style="stop-color:#D18159"/>
			<stop  offset="1" style="stop-color:#C27861"/>
		</linearGradient>
		<path class="st36" d="M28.01,133.89c1.45,0.6,2.79,1.31,4.11,2.04c1.3,0.75,2.59,1.51,3.82,2.32c1.23,0.82,2.43,1.67,3.61,2.54
			c1.17,0.88,2.32,1.78,3.44,2.71l-5.73,0c3.9-4.7,8.19-9.01,12.85-12.95c2.34-1.96,4.78-3.82,7.36-5.55
			c0.64-0.43,1.3-0.85,1.96-1.27l2.03-1.19c1.37-0.78,2.78-1.52,4.29-2.16l0.25-0.11l0.28,0.28l-0.17,0.18
			c-2.12,2.18-4.21,4.4-6.35,6.55l-6.41,6.49l-6.42,6.49l-6.49,6.41l-0.32,0.31l-0.31-0.31l-6.11-6.19
			c-2.04-2.06-4.03-4.17-6.05-6.25l-0.17-0.18l0.28-0.28L28.01,133.89z"/>
	</g>
</g>
</svg>
